<mxfile host="app.diagrams.net" modified="2024-03-24T06:50:38.917Z" agent="Mozilla/5.0 (Windows NT 10.0; Win64; x64) AppleWebKit/537.36 (KHTML, like Gecko) Chrome/121.0.0.0 Safari/537.36" etag="uWvVvoOJJ2yDDr-ZfW4K" version="24.0.5" type="github">
  <diagram name="第 1 页" id="VYbCO--YuYpUogVYsecE">
    <mxGraphModel dx="2963" dy="428" grid="1" gridSize="10" guides="1" tooltips="1" connect="1" arrows="1" fold="1" page="1" pageScale="1" pageWidth="827" pageHeight="1169" math="0" shadow="0">
      <root>
        <mxCell id="0" />
        <mxCell id="1" parent="0" />
        <mxCell id="rdohVRuR8QGzKIeL4WwT-202" value="" style="rounded=1;whiteSpace=wrap;html=1;dashed=1;dashPattern=12 12;" parent="1" vertex="1">
          <mxGeometry y="1169" width="2250" height="1631" as="geometry" />
        </mxCell>
        <mxCell id="rdohVRuR8QGzKIeL4WwT-1" value="&lt;font face=&quot;Times New Roman&quot; style=&quot;font-size: 30px;&quot;&gt;&lt;b&gt;Sentence1/Premise&lt;/b&gt;&lt;/font&gt;" style="text;html=1;align=center;verticalAlign=middle;resizable=0;points=[];autosize=1;strokeColor=none;fillColor=none;" parent="1" vertex="1">
          <mxGeometry x="136" y="2673" width="260" height="50" as="geometry" />
        </mxCell>
        <mxCell id="rdohVRuR8QGzKIeL4WwT-2" value="&lt;font face=&quot;Times New Roman&quot; style=&quot;font-size: 30px;&quot;&gt;&lt;b&gt;Sentence2/Hypothesis&lt;/b&gt;&lt;/font&gt;" style="text;html=1;align=center;verticalAlign=middle;resizable=0;points=[];autosize=1;strokeColor=none;fillColor=none;" parent="1" vertex="1">
          <mxGeometry x="706" y="2673" width="300" height="50" as="geometry" />
        </mxCell>
        <mxCell id="rdohVRuR8QGzKIeL4WwT-63" value="" style="shape=flexArrow;endArrow=classic;html=1;rounded=0;endWidth=32.72727272727273;endSize=12.047619047619047;width=19.047619047619047;" parent="1" edge="1">
          <mxGeometry width="50" height="50" relative="1" as="geometry">
            <mxPoint x="266" y="2656" as="sourcePoint" />
            <mxPoint x="266" y="2580" as="targetPoint" />
          </mxGeometry>
        </mxCell>
        <mxCell id="rdohVRuR8QGzKIeL4WwT-64" value="" style="shape=flexArrow;endArrow=classic;html=1;rounded=0;endWidth=32.72727272727273;endSize=12.047619047619047;width=19.047619047619047;" parent="1" edge="1">
          <mxGeometry width="50" height="50" relative="1" as="geometry">
            <mxPoint x="859.73" y="2659" as="sourcePoint" />
            <mxPoint x="859.73" y="2583" as="targetPoint" />
          </mxGeometry>
        </mxCell>
        <mxCell id="rdohVRuR8QGzKIeL4WwT-67" value="" style="rounded=1;whiteSpace=wrap;html=1;" parent="1" vertex="1">
          <mxGeometry x="1410" y="1209" width="610" height="450" as="geometry" />
        </mxCell>
        <mxCell id="rdohVRuR8QGzKIeL4WwT-69" value="&lt;font style=&quot;font-size: 30px;&quot; face=&quot;Times New Roman&quot;&gt;[CLS]&lt;/font&gt;" style="text;html=1;align=center;verticalAlign=middle;resizable=0;points=[];autosize=1;strokeColor=none;fillColor=none;" parent="1" vertex="1">
          <mxGeometry x="1440" y="1609" width="100" height="50" as="geometry" />
        </mxCell>
        <mxCell id="rdohVRuR8QGzKIeL4WwT-70" value="&lt;font style=&quot;font-size: 30px;&quot; face=&quot;Times New Roman&quot;&gt;W&lt;sub&gt;1&lt;/sub&gt;&lt;/font&gt;" style="text;html=1;align=center;verticalAlign=middle;resizable=0;points=[];autosize=1;strokeColor=none;fillColor=none;" parent="1" vertex="1">
          <mxGeometry x="1560" y="1609" width="60" height="60" as="geometry" />
        </mxCell>
        <mxCell id="rdohVRuR8QGzKIeL4WwT-71" value="&lt;font style=&quot;font-size: 30px;&quot; face=&quot;Times New Roman&quot;&gt;W&lt;sub&gt;2&lt;/sub&gt;&lt;/font&gt;" style="text;html=1;align=center;verticalAlign=middle;resizable=0;points=[];autosize=1;strokeColor=none;fillColor=none;" parent="1" vertex="1">
          <mxGeometry x="1650" y="1609" width="60" height="60" as="geometry" />
        </mxCell>
        <mxCell id="rdohVRuR8QGzKIeL4WwT-72" value="&lt;font style=&quot;font-size: 30px;&quot; face=&quot;Times New Roman&quot;&gt;W&lt;sub&gt;3&lt;/sub&gt;&lt;/font&gt;" style="text;html=1;align=center;verticalAlign=middle;resizable=0;points=[];autosize=1;strokeColor=none;fillColor=none;" parent="1" vertex="1">
          <mxGeometry x="1740" y="1609" width="60" height="60" as="geometry" />
        </mxCell>
        <mxCell id="rdohVRuR8QGzKIeL4WwT-73" value="&lt;font style=&quot;font-size: 30px;&quot; face=&quot;Times New Roman&quot;&gt;W&lt;sub&gt;4&lt;/sub&gt;&lt;/font&gt;" style="text;html=1;align=center;verticalAlign=middle;resizable=0;points=[];autosize=1;strokeColor=none;fillColor=none;" parent="1" vertex="1">
          <mxGeometry x="1830" y="1609" width="60" height="60" as="geometry" />
        </mxCell>
        <mxCell id="rdohVRuR8QGzKIeL4WwT-74" value="&lt;font style=&quot;font-size: 30px;&quot; face=&quot;Times New Roman&quot;&gt;W&lt;sub&gt;5&lt;/sub&gt;&lt;/font&gt;" style="text;html=1;align=center;verticalAlign=middle;resizable=0;points=[];autosize=1;strokeColor=none;fillColor=none;" parent="1" vertex="1">
          <mxGeometry x="1920" y="1609" width="60" height="60" as="geometry" />
        </mxCell>
        <mxCell id="rdohVRuR8QGzKIeL4WwT-75" value="" style="group" parent="1" vertex="1" connectable="0">
          <mxGeometry x="1430" y="1239" width="170" height="50" as="geometry" />
        </mxCell>
        <mxCell id="rdohVRuR8QGzKIeL4WwT-76" value="" style="rounded=1;whiteSpace=wrap;html=1;container=0;" parent="rdohVRuR8QGzKIeL4WwT-75" vertex="1">
          <mxGeometry width="170" height="50" as="geometry" />
        </mxCell>
        <mxCell id="rdohVRuR8QGzKIeL4WwT-77" value="" style="ellipse;whiteSpace=wrap;html=1;aspect=fixed;fillColor=#dae8fc;strokeColor=#6c8ebf;container=0;" parent="rdohVRuR8QGzKIeL4WwT-75" vertex="1">
          <mxGeometry x="10" y="10" width="30" height="30" as="geometry" />
        </mxCell>
        <mxCell id="rdohVRuR8QGzKIeL4WwT-78" value="" style="ellipse;whiteSpace=wrap;html=1;aspect=fixed;fillColor=#dae8fc;strokeColor=#6c8ebf;container=0;" parent="rdohVRuR8QGzKIeL4WwT-75" vertex="1">
          <mxGeometry x="50" y="10" width="30" height="30" as="geometry" />
        </mxCell>
        <mxCell id="rdohVRuR8QGzKIeL4WwT-79" value="" style="ellipse;whiteSpace=wrap;html=1;aspect=fixed;fillColor=#dae8fc;strokeColor=#6c8ebf;container=0;" parent="rdohVRuR8QGzKIeL4WwT-75" vertex="1">
          <mxGeometry x="130" y="10" width="30" height="30" as="geometry" />
        </mxCell>
        <mxCell id="rdohVRuR8QGzKIeL4WwT-80" value="" style="ellipse;whiteSpace=wrap;html=1;aspect=fixed;fillColor=#dae8fc;strokeColor=#6c8ebf;container=0;" parent="rdohVRuR8QGzKIeL4WwT-75" vertex="1">
          <mxGeometry x="90" y="10" width="30" height="30" as="geometry" />
        </mxCell>
        <mxCell id="rdohVRuR8QGzKIeL4WwT-81" value="" style="endArrow=classic;html=1;rounded=0;" parent="1" edge="1">
          <mxGeometry width="50" height="50" relative="1" as="geometry">
            <mxPoint x="1490.76" y="1623.49" as="sourcePoint" />
            <mxPoint x="1490.76" y="1589" as="targetPoint" />
          </mxGeometry>
        </mxCell>
        <mxCell id="rdohVRuR8QGzKIeL4WwT-82" value="" style="endArrow=classic;html=1;rounded=0;" parent="1" edge="1">
          <mxGeometry width="50" height="50" relative="1" as="geometry">
            <mxPoint x="1583.76" y="1623.49" as="sourcePoint" />
            <mxPoint x="1583.76" y="1589" as="targetPoint" />
          </mxGeometry>
        </mxCell>
        <mxCell id="rdohVRuR8QGzKIeL4WwT-83" value="" style="endArrow=classic;html=1;rounded=0;" parent="1" edge="1">
          <mxGeometry width="50" height="50" relative="1" as="geometry">
            <mxPoint x="1674" y="1623.49" as="sourcePoint" />
            <mxPoint x="1674" y="1589" as="targetPoint" />
          </mxGeometry>
        </mxCell>
        <mxCell id="rdohVRuR8QGzKIeL4WwT-84" value="" style="endArrow=classic;html=1;rounded=0;" parent="1" edge="1">
          <mxGeometry width="50" height="50" relative="1" as="geometry">
            <mxPoint x="1761" y="1623.49" as="sourcePoint" />
            <mxPoint x="1761" y="1589" as="targetPoint" />
          </mxGeometry>
        </mxCell>
        <mxCell id="rdohVRuR8QGzKIeL4WwT-85" value="" style="endArrow=classic;html=1;rounded=0;" parent="1" edge="1">
          <mxGeometry width="50" height="50" relative="1" as="geometry">
            <mxPoint x="1851" y="1623.49" as="sourcePoint" />
            <mxPoint x="1851" y="1589" as="targetPoint" />
          </mxGeometry>
        </mxCell>
        <mxCell id="rdohVRuR8QGzKIeL4WwT-86" value="" style="endArrow=classic;html=1;rounded=0;" parent="1" edge="1">
          <mxGeometry width="50" height="50" relative="1" as="geometry">
            <mxPoint x="1941" y="1623.49" as="sourcePoint" />
            <mxPoint x="1941" y="1589" as="targetPoint" />
          </mxGeometry>
        </mxCell>
        <mxCell id="rdohVRuR8QGzKIeL4WwT-87" value="" style="endArrow=classic;html=1;rounded=0;" parent="1" edge="1">
          <mxGeometry width="50" height="50" relative="1" as="geometry">
            <mxPoint x="1491" y="1319" as="sourcePoint" />
            <mxPoint x="1490.76" y="1289" as="targetPoint" />
          </mxGeometry>
        </mxCell>
        <mxCell id="rdohVRuR8QGzKIeL4WwT-89" value="&lt;font face=&quot;Times New Roman&quot; style=&quot;font-size: 30px;&quot;&gt;BERT&lt;i&gt;&lt;sub&gt;Chinese&lt;/sub&gt;&lt;/i&gt;&lt;/font&gt;" style="rounded=1;whiteSpace=wrap;html=1;fillColor=#dae8fc;strokeColor=default;" parent="1" vertex="1">
          <mxGeometry x="1450" y="1319" width="530" height="270" as="geometry" />
        </mxCell>
        <mxCell id="rdohVRuR8QGzKIeL4WwT-90" value="" style="ellipse;whiteSpace=wrap;html=1;aspect=fixed;fillColor=#dae8fc;strokeColor=#6c8ebf;opacity=60;" parent="1" vertex="1">
          <mxGeometry x="1470" y="1339" width="40" height="40" as="geometry" />
        </mxCell>
        <mxCell id="rdohVRuR8QGzKIeL4WwT-91" value="" style="ellipse;whiteSpace=wrap;html=1;aspect=fixed;fillColor=#dae8fc;strokeColor=#6c8ebf;opacity=60;" parent="1" vertex="1">
          <mxGeometry x="1560" y="1339" width="40" height="40" as="geometry" />
        </mxCell>
        <mxCell id="rdohVRuR8QGzKIeL4WwT-92" value="" style="ellipse;whiteSpace=wrap;html=1;aspect=fixed;fillColor=#dae8fc;strokeColor=#6c8ebf;opacity=60;" parent="1" vertex="1">
          <mxGeometry x="1650" y="1339" width="40" height="40" as="geometry" />
        </mxCell>
        <mxCell id="rdohVRuR8QGzKIeL4WwT-93" value="" style="ellipse;whiteSpace=wrap;html=1;aspect=fixed;fillColor=#dae8fc;strokeColor=#6c8ebf;opacity=60;" parent="1" vertex="1">
          <mxGeometry x="1740" y="1339" width="40" height="40" as="geometry" />
        </mxCell>
        <mxCell id="rdohVRuR8QGzKIeL4WwT-94" value="" style="ellipse;whiteSpace=wrap;html=1;aspect=fixed;fillColor=#dae8fc;strokeColor=#6c8ebf;opacity=60;" parent="1" vertex="1">
          <mxGeometry x="1830" y="1339" width="40" height="40" as="geometry" />
        </mxCell>
        <mxCell id="rdohVRuR8QGzKIeL4WwT-95" value="" style="ellipse;whiteSpace=wrap;html=1;aspect=fixed;fillColor=#dae8fc;strokeColor=#6c8ebf;opacity=60;" parent="1" vertex="1">
          <mxGeometry x="1920" y="1339" width="40" height="40" as="geometry" />
        </mxCell>
        <mxCell id="rdohVRuR8QGzKIeL4WwT-96" style="edgeStyle=orthogonalEdgeStyle;rounded=0;orthogonalLoop=1;jettySize=auto;html=1;entryX=0.5;entryY=1;entryDx=0;entryDy=0;opacity=60;strokeColor=#66B2FF;" parent="1" source="rdohVRuR8QGzKIeL4WwT-102" target="rdohVRuR8QGzKIeL4WwT-90" edge="1">
          <mxGeometry relative="1" as="geometry" />
        </mxCell>
        <mxCell id="rdohVRuR8QGzKIeL4WwT-97" style="rounded=0;orthogonalLoop=1;jettySize=auto;html=1;exitX=0.5;exitY=0;exitDx=0;exitDy=0;entryX=0.5;entryY=1;entryDx=0;entryDy=0;opacity=60;strokeColor=#66B2FF;" parent="1" source="rdohVRuR8QGzKIeL4WwT-102" target="rdohVRuR8QGzKIeL4WwT-91" edge="1">
          <mxGeometry relative="1" as="geometry" />
        </mxCell>
        <mxCell id="rdohVRuR8QGzKIeL4WwT-98" style="rounded=0;orthogonalLoop=1;jettySize=auto;html=1;exitX=0.5;exitY=0;exitDx=0;exitDy=0;entryX=0.5;entryY=1;entryDx=0;entryDy=0;opacity=60;strokeColor=#66B2FF;" parent="1" source="rdohVRuR8QGzKIeL4WwT-102" target="rdohVRuR8QGzKIeL4WwT-92" edge="1">
          <mxGeometry relative="1" as="geometry" />
        </mxCell>
        <mxCell id="rdohVRuR8QGzKIeL4WwT-99" style="rounded=0;orthogonalLoop=1;jettySize=auto;html=1;exitX=0.5;exitY=0;exitDx=0;exitDy=0;entryX=0.5;entryY=1;entryDx=0;entryDy=0;opacity=60;strokeColor=#66B2FF;" parent="1" source="rdohVRuR8QGzKIeL4WwT-102" target="rdohVRuR8QGzKIeL4WwT-93" edge="1">
          <mxGeometry relative="1" as="geometry" />
        </mxCell>
        <mxCell id="rdohVRuR8QGzKIeL4WwT-100" style="rounded=0;orthogonalLoop=1;jettySize=auto;html=1;exitX=0.5;exitY=0;exitDx=0;exitDy=0;entryX=0.5;entryY=1;entryDx=0;entryDy=0;opacity=60;strokeColor=#66B2FF;" parent="1" source="rdohVRuR8QGzKIeL4WwT-102" target="rdohVRuR8QGzKIeL4WwT-94" edge="1">
          <mxGeometry relative="1" as="geometry" />
        </mxCell>
        <mxCell id="rdohVRuR8QGzKIeL4WwT-101" style="rounded=0;orthogonalLoop=1;jettySize=auto;html=1;exitX=0.5;exitY=0;exitDx=0;exitDy=0;entryX=0.5;entryY=1;entryDx=0;entryDy=0;opacity=60;strokeColor=#66B2FF;" parent="1" source="rdohVRuR8QGzKIeL4WwT-102" target="rdohVRuR8QGzKIeL4WwT-95" edge="1">
          <mxGeometry relative="1" as="geometry" />
        </mxCell>
        <mxCell id="rdohVRuR8QGzKIeL4WwT-102" value="" style="ellipse;whiteSpace=wrap;html=1;aspect=fixed;fillColor=#dae8fc;strokeColor=#6c8ebf;opacity=60;" parent="1" vertex="1">
          <mxGeometry x="1470" y="1529" width="40" height="40" as="geometry" />
        </mxCell>
        <mxCell id="rdohVRuR8QGzKIeL4WwT-103" style="rounded=0;orthogonalLoop=1;jettySize=auto;html=1;exitX=0.5;exitY=0;exitDx=0;exitDy=0;opacity=60;strokeColor=#66B2FF;" parent="1" source="rdohVRuR8QGzKIeL4WwT-109" edge="1">
          <mxGeometry relative="1" as="geometry">
            <mxPoint x="1491" y="1379" as="targetPoint" />
          </mxGeometry>
        </mxCell>
        <mxCell id="rdohVRuR8QGzKIeL4WwT-104" style="rounded=0;orthogonalLoop=1;jettySize=auto;html=1;exitX=0.5;exitY=0;exitDx=0;exitDy=0;entryX=0.5;entryY=1;entryDx=0;entryDy=0;opacity=60;strokeColor=#66B2FF;" parent="1" source="rdohVRuR8QGzKIeL4WwT-109" target="rdohVRuR8QGzKIeL4WwT-91" edge="1">
          <mxGeometry relative="1" as="geometry" />
        </mxCell>
        <mxCell id="rdohVRuR8QGzKIeL4WwT-105" style="edgeStyle=none;rounded=0;orthogonalLoop=1;jettySize=auto;html=1;exitX=0.5;exitY=0;exitDx=0;exitDy=0;entryX=0.5;entryY=1;entryDx=0;entryDy=0;opacity=60;strokeColor=#66B2FF;" parent="1" source="rdohVRuR8QGzKIeL4WwT-109" target="rdohVRuR8QGzKIeL4WwT-92" edge="1">
          <mxGeometry relative="1" as="geometry" />
        </mxCell>
        <mxCell id="rdohVRuR8QGzKIeL4WwT-106" style="edgeStyle=none;rounded=0;orthogonalLoop=1;jettySize=auto;html=1;exitX=0.5;exitY=0;exitDx=0;exitDy=0;opacity=60;strokeColor=#66B2FF;" parent="1" source="rdohVRuR8QGzKIeL4WwT-109" edge="1">
          <mxGeometry relative="1" as="geometry">
            <mxPoint x="1761" y="1379" as="targetPoint" />
          </mxGeometry>
        </mxCell>
        <mxCell id="rdohVRuR8QGzKIeL4WwT-107" style="edgeStyle=none;rounded=0;orthogonalLoop=1;jettySize=auto;html=1;exitX=0.5;exitY=0;exitDx=0;exitDy=0;opacity=60;strokeColor=#66B2FF;" parent="1" source="rdohVRuR8QGzKIeL4WwT-109" edge="1">
          <mxGeometry relative="1" as="geometry">
            <mxPoint x="1851" y="1379" as="targetPoint" />
          </mxGeometry>
        </mxCell>
        <mxCell id="rdohVRuR8QGzKIeL4WwT-108" style="edgeStyle=none;rounded=0;orthogonalLoop=1;jettySize=auto;html=1;exitX=0.5;exitY=0;exitDx=0;exitDy=0;entryX=0.5;entryY=1;entryDx=0;entryDy=0;opacity=60;strokeColor=#66B2FF;" parent="1" source="rdohVRuR8QGzKIeL4WwT-109" target="rdohVRuR8QGzKIeL4WwT-95" edge="1">
          <mxGeometry relative="1" as="geometry" />
        </mxCell>
        <mxCell id="rdohVRuR8QGzKIeL4WwT-109" value="" style="ellipse;whiteSpace=wrap;html=1;aspect=fixed;fillColor=#dae8fc;strokeColor=#6c8ebf;opacity=60;" parent="1" vertex="1">
          <mxGeometry x="1560" y="1529" width="40" height="40" as="geometry" />
        </mxCell>
        <mxCell id="rdohVRuR8QGzKIeL4WwT-110" style="edgeStyle=none;rounded=0;orthogonalLoop=1;jettySize=auto;html=1;exitX=0.5;exitY=0;exitDx=0;exitDy=0;entryX=0.5;entryY=1;entryDx=0;entryDy=0;opacity=60;strokeColor=#66B2FF;" parent="1" source="rdohVRuR8QGzKIeL4WwT-116" target="rdohVRuR8QGzKIeL4WwT-90" edge="1">
          <mxGeometry relative="1" as="geometry" />
        </mxCell>
        <mxCell id="rdohVRuR8QGzKIeL4WwT-111" style="edgeStyle=none;rounded=0;orthogonalLoop=1;jettySize=auto;html=1;exitX=0.5;exitY=0;exitDx=0;exitDy=0;opacity=60;strokeColor=#66B2FF;" parent="1" source="rdohVRuR8QGzKIeL4WwT-116" edge="1">
          <mxGeometry relative="1" as="geometry">
            <mxPoint x="1581" y="1379" as="targetPoint" />
          </mxGeometry>
        </mxCell>
        <mxCell id="rdohVRuR8QGzKIeL4WwT-112" style="edgeStyle=none;rounded=0;orthogonalLoop=1;jettySize=auto;html=1;exitX=0.5;exitY=0;exitDx=0;exitDy=0;opacity=60;strokeColor=#66B2FF;" parent="1" source="rdohVRuR8QGzKIeL4WwT-116" edge="1">
          <mxGeometry relative="1" as="geometry">
            <mxPoint x="1670.8571428571431" y="1379" as="targetPoint" />
          </mxGeometry>
        </mxCell>
        <mxCell id="rdohVRuR8QGzKIeL4WwT-113" style="edgeStyle=none;rounded=0;orthogonalLoop=1;jettySize=auto;html=1;exitX=0.5;exitY=0;exitDx=0;exitDy=0;entryX=0.5;entryY=1;entryDx=0;entryDy=0;opacity=60;strokeColor=#66B2FF;" parent="1" source="rdohVRuR8QGzKIeL4WwT-116" target="rdohVRuR8QGzKIeL4WwT-93" edge="1">
          <mxGeometry relative="1" as="geometry" />
        </mxCell>
        <mxCell id="rdohVRuR8QGzKIeL4WwT-114" style="edgeStyle=none;rounded=0;orthogonalLoop=1;jettySize=auto;html=1;exitX=0.5;exitY=0;exitDx=0;exitDy=0;opacity=60;strokeColor=#66B2FF;" parent="1" source="rdohVRuR8QGzKIeL4WwT-116" edge="1">
          <mxGeometry relative="1" as="geometry">
            <mxPoint x="1851" y="1379" as="targetPoint" />
          </mxGeometry>
        </mxCell>
        <mxCell id="rdohVRuR8QGzKIeL4WwT-115" style="edgeStyle=none;rounded=0;orthogonalLoop=1;jettySize=auto;html=1;exitX=0.5;exitY=0;exitDx=0;exitDy=0;entryX=0.5;entryY=1;entryDx=0;entryDy=0;opacity=60;strokeColor=#66B2FF;" parent="1" source="rdohVRuR8QGzKIeL4WwT-116" target="rdohVRuR8QGzKIeL4WwT-95" edge="1">
          <mxGeometry relative="1" as="geometry" />
        </mxCell>
        <mxCell id="rdohVRuR8QGzKIeL4WwT-116" value="" style="ellipse;whiteSpace=wrap;html=1;aspect=fixed;fillColor=#dae8fc;strokeColor=#6c8ebf;opacity=60;" parent="1" vertex="1">
          <mxGeometry x="1650" y="1529" width="40" height="40" as="geometry" />
        </mxCell>
        <mxCell id="rdohVRuR8QGzKIeL4WwT-117" style="edgeStyle=none;rounded=0;orthogonalLoop=1;jettySize=auto;html=1;exitX=0.5;exitY=0;exitDx=0;exitDy=0;opacity=60;strokeColor=#66B2FF;" parent="1" source="rdohVRuR8QGzKIeL4WwT-123" edge="1">
          <mxGeometry relative="1" as="geometry">
            <mxPoint x="1491" y="1379" as="targetPoint" />
          </mxGeometry>
        </mxCell>
        <mxCell id="rdohVRuR8QGzKIeL4WwT-118" style="edgeStyle=none;rounded=0;orthogonalLoop=1;jettySize=auto;html=1;exitX=0.5;exitY=0;exitDx=0;exitDy=0;entryX=0.371;entryY=0.941;entryDx=0;entryDy=0;entryPerimeter=0;opacity=60;strokeColor=#66B2FF;" parent="1" source="rdohVRuR8QGzKIeL4WwT-123" target="rdohVRuR8QGzKIeL4WwT-91" edge="1">
          <mxGeometry relative="1" as="geometry" />
        </mxCell>
        <mxCell id="rdohVRuR8QGzKIeL4WwT-119" style="edgeStyle=none;rounded=0;orthogonalLoop=1;jettySize=auto;html=1;exitX=0.5;exitY=0;exitDx=0;exitDy=0;opacity=60;strokeColor=#66B2FF;" parent="1" source="rdohVRuR8QGzKIeL4WwT-123" edge="1">
          <mxGeometry relative="1" as="geometry">
            <mxPoint x="1671" y="1379" as="targetPoint" />
          </mxGeometry>
        </mxCell>
        <mxCell id="rdohVRuR8QGzKIeL4WwT-120" style="edgeStyle=none;rounded=0;orthogonalLoop=1;jettySize=auto;html=1;exitX=0.5;exitY=0;exitDx=0;exitDy=0;opacity=60;strokeColor=#66B2FF;" parent="1" source="rdohVRuR8QGzKIeL4WwT-123" target="rdohVRuR8QGzKIeL4WwT-93" edge="1">
          <mxGeometry relative="1" as="geometry" />
        </mxCell>
        <mxCell id="rdohVRuR8QGzKIeL4WwT-121" style="edgeStyle=none;rounded=0;orthogonalLoop=1;jettySize=auto;html=1;exitX=0.5;exitY=0;exitDx=0;exitDy=0;entryX=0.5;entryY=1;entryDx=0;entryDy=0;opacity=60;strokeColor=#66B2FF;" parent="1" source="rdohVRuR8QGzKIeL4WwT-123" target="rdohVRuR8QGzKIeL4WwT-94" edge="1">
          <mxGeometry relative="1" as="geometry" />
        </mxCell>
        <mxCell id="rdohVRuR8QGzKIeL4WwT-122" style="edgeStyle=none;rounded=0;orthogonalLoop=1;jettySize=auto;html=1;exitX=0.5;exitY=0;exitDx=0;exitDy=0;opacity=60;strokeColor=#66B2FF;" parent="1" source="rdohVRuR8QGzKIeL4WwT-123" edge="1">
          <mxGeometry relative="1" as="geometry">
            <mxPoint x="1941" y="1379" as="targetPoint" />
          </mxGeometry>
        </mxCell>
        <mxCell id="rdohVRuR8QGzKIeL4WwT-123" value="" style="ellipse;whiteSpace=wrap;html=1;aspect=fixed;fillColor=#dae8fc;strokeColor=#6c8ebf;opacity=60;" parent="1" vertex="1">
          <mxGeometry x="1740" y="1529" width="40" height="40" as="geometry" />
        </mxCell>
        <mxCell id="rdohVRuR8QGzKIeL4WwT-124" style="edgeStyle=none;rounded=0;orthogonalLoop=1;jettySize=auto;html=1;exitX=0.5;exitY=0;exitDx=0;exitDy=0;opacity=60;strokeColor=#66B2FF;" parent="1" source="rdohVRuR8QGzKIeL4WwT-129" edge="1">
          <mxGeometry relative="1" as="geometry">
            <mxPoint x="1491" y="1379" as="targetPoint" />
          </mxGeometry>
        </mxCell>
        <mxCell id="rdohVRuR8QGzKIeL4WwT-125" style="edgeStyle=none;rounded=0;orthogonalLoop=1;jettySize=auto;html=1;exitX=0.5;exitY=0;exitDx=0;exitDy=0;opacity=60;strokeColor=#66B2FF;" parent="1" source="rdohVRuR8QGzKIeL4WwT-129" edge="1">
          <mxGeometry relative="1" as="geometry">
            <mxPoint x="1581" y="1379" as="targetPoint" />
          </mxGeometry>
        </mxCell>
        <mxCell id="rdohVRuR8QGzKIeL4WwT-126" style="edgeStyle=none;rounded=0;orthogonalLoop=1;jettySize=auto;html=1;exitX=0.5;exitY=0;exitDx=0;exitDy=0;entryX=0.5;entryY=1;entryDx=0;entryDy=0;opacity=60;strokeColor=#66B2FF;" parent="1" source="rdohVRuR8QGzKIeL4WwT-129" target="rdohVRuR8QGzKIeL4WwT-92" edge="1">
          <mxGeometry relative="1" as="geometry" />
        </mxCell>
        <mxCell id="rdohVRuR8QGzKIeL4WwT-127" style="edgeStyle=none;rounded=0;orthogonalLoop=1;jettySize=auto;html=1;exitX=0.5;exitY=0;exitDx=0;exitDy=0;entryX=0.5;entryY=1;entryDx=0;entryDy=0;opacity=60;strokeColor=#66B2FF;" parent="1" source="rdohVRuR8QGzKIeL4WwT-129" target="rdohVRuR8QGzKIeL4WwT-94" edge="1">
          <mxGeometry relative="1" as="geometry" />
        </mxCell>
        <mxCell id="rdohVRuR8QGzKIeL4WwT-128" style="edgeStyle=none;rounded=0;orthogonalLoop=1;jettySize=auto;html=1;exitX=0.5;exitY=0;exitDx=0;exitDy=0;entryX=0.5;entryY=1;entryDx=0;entryDy=0;opacity=60;strokeColor=#66B2FF;" parent="1" source="rdohVRuR8QGzKIeL4WwT-129" target="rdohVRuR8QGzKIeL4WwT-95" edge="1">
          <mxGeometry relative="1" as="geometry" />
        </mxCell>
        <mxCell id="rdohVRuR8QGzKIeL4WwT-129" value="" style="ellipse;whiteSpace=wrap;html=1;aspect=fixed;fillColor=#dae8fc;strokeColor=#6c8ebf;opacity=60;" parent="1" vertex="1">
          <mxGeometry x="1830" y="1529" width="40" height="40" as="geometry" />
        </mxCell>
        <mxCell id="rdohVRuR8QGzKIeL4WwT-130" style="edgeStyle=none;rounded=0;orthogonalLoop=1;jettySize=auto;html=1;exitX=0.5;exitY=0;exitDx=0;exitDy=0;opacity=60;strokeColor=#66B2FF;" parent="1" source="rdohVRuR8QGzKIeL4WwT-136" edge="1">
          <mxGeometry relative="1" as="geometry">
            <mxPoint x="1491" y="1379" as="targetPoint" />
          </mxGeometry>
        </mxCell>
        <mxCell id="rdohVRuR8QGzKIeL4WwT-131" style="edgeStyle=none;rounded=0;orthogonalLoop=1;jettySize=auto;html=1;exitX=0.5;exitY=0;exitDx=0;exitDy=0;entryX=0.5;entryY=1;entryDx=0;entryDy=0;opacity=60;strokeColor=#66B2FF;" parent="1" source="rdohVRuR8QGzKIeL4WwT-136" target="rdohVRuR8QGzKIeL4WwT-91" edge="1">
          <mxGeometry relative="1" as="geometry" />
        </mxCell>
        <mxCell id="rdohVRuR8QGzKIeL4WwT-132" style="edgeStyle=none;rounded=0;orthogonalLoop=1;jettySize=auto;html=1;exitX=0.5;exitY=0;exitDx=0;exitDy=0;opacity=60;strokeColor=#66B2FF;" parent="1" source="rdohVRuR8QGzKIeL4WwT-136" edge="1">
          <mxGeometry relative="1" as="geometry">
            <mxPoint x="1671" y="1379" as="targetPoint" />
          </mxGeometry>
        </mxCell>
        <mxCell id="rdohVRuR8QGzKIeL4WwT-133" style="edgeStyle=none;rounded=0;orthogonalLoop=1;jettySize=auto;html=1;exitX=0.5;exitY=0;exitDx=0;exitDy=0;opacity=60;strokeColor=#66B2FF;" parent="1" source="rdohVRuR8QGzKIeL4WwT-136" edge="1">
          <mxGeometry relative="1" as="geometry">
            <mxPoint x="1761" y="1379" as="targetPoint" />
          </mxGeometry>
        </mxCell>
        <mxCell id="rdohVRuR8QGzKIeL4WwT-134" style="edgeStyle=none;rounded=0;orthogonalLoop=1;jettySize=auto;html=1;exitX=0.5;exitY=0;exitDx=0;exitDy=0;opacity=60;strokeColor=#66B2FF;" parent="1" source="rdohVRuR8QGzKIeL4WwT-136" edge="1">
          <mxGeometry relative="1" as="geometry">
            <mxPoint x="1851" y="1379" as="targetPoint" />
          </mxGeometry>
        </mxCell>
        <mxCell id="rdohVRuR8QGzKIeL4WwT-135" style="edgeStyle=none;rounded=0;orthogonalLoop=1;jettySize=auto;html=1;exitX=0.5;exitY=0;exitDx=0;exitDy=0;opacity=60;strokeColor=#66B2FF;" parent="1" source="rdohVRuR8QGzKIeL4WwT-136" edge="1">
          <mxGeometry relative="1" as="geometry">
            <mxPoint x="1940.8571428571431" y="1379" as="targetPoint" />
          </mxGeometry>
        </mxCell>
        <mxCell id="rdohVRuR8QGzKIeL4WwT-136" value="" style="ellipse;whiteSpace=wrap;html=1;aspect=fixed;fillColor=#dae8fc;strokeColor=#6c8ebf;opacity=60;" parent="1" vertex="1">
          <mxGeometry x="1920" y="1529" width="40" height="40" as="geometry" />
        </mxCell>
        <mxCell id="rdohVRuR8QGzKIeL4WwT-160" value="" style="rounded=1;whiteSpace=wrap;html=1;container=0;" parent="1" vertex="1">
          <mxGeometry x="1410" y="1720" width="610" height="285" as="geometry" />
        </mxCell>
        <mxCell id="rdohVRuR8QGzKIeL4WwT-166" value="" style="rounded=0;whiteSpace=wrap;html=1;dashed=1;strokeWidth=2;container=0;" parent="1" vertex="1">
          <mxGeometry x="1500" y="1790" width="300" height="60" as="geometry" />
        </mxCell>
        <mxCell id="rdohVRuR8QGzKIeL4WwT-167" value="&lt;font style=&quot;font-size: 30px;&quot; face=&quot;Times New Roman&quot;&gt;Row Max Pooling Layer&lt;/font&gt;" style="text;html=1;align=center;verticalAlign=middle;resizable=0;points=[];autosize=1;strokeColor=none;fillColor=none;container=0;fontSize=30;fontStyle=1" parent="1" vertex="1">
          <mxGeometry x="1545" y="1735" width="340" height="50" as="geometry" />
        </mxCell>
        <mxCell id="rdohVRuR8QGzKIeL4WwT-172" value="" style="endArrow=classic;html=1;rounded=0;" parent="1" edge="1">
          <mxGeometry width="50" height="50" relative="1" as="geometry">
            <mxPoint x="1825" y="1823" as="sourcePoint" />
            <mxPoint x="1895" y="1823" as="targetPoint" />
          </mxGeometry>
        </mxCell>
        <mxCell id="rdohVRuR8QGzKIeL4WwT-173" value="" style="endArrow=classic;html=1;rounded=0;" parent="1" edge="1">
          <mxGeometry width="50" height="50" relative="1" as="geometry">
            <mxPoint x="1825" y="1865.5900000000001" as="sourcePoint" />
            <mxPoint x="1895" y="1865.5900000000001" as="targetPoint" />
          </mxGeometry>
        </mxCell>
        <mxCell id="rdohVRuR8QGzKIeL4WwT-174" value="" style="endArrow=classic;html=1;rounded=0;" parent="1" edge="1">
          <mxGeometry width="50" height="50" relative="1" as="geometry">
            <mxPoint x="1825" y="1906.5900000000001" as="sourcePoint" />
            <mxPoint x="1895" y="1906.5900000000001" as="targetPoint" />
          </mxGeometry>
        </mxCell>
        <mxCell id="rdohVRuR8QGzKIeL4WwT-175" value="" style="endArrow=classic;html=1;rounded=0;" parent="1" edge="1">
          <mxGeometry width="50" height="50" relative="1" as="geometry">
            <mxPoint x="1825" y="1947.5900000000001" as="sourcePoint" />
            <mxPoint x="1895" y="1947.5900000000001" as="targetPoint" />
          </mxGeometry>
        </mxCell>
        <mxCell id="rdohVRuR8QGzKIeL4WwT-177" value="" style="rounded=1;whiteSpace=wrap;html=1;direction=west;rotation=90;container=0;" parent="1" vertex="1">
          <mxGeometry x="1680" y="1860" width="170" height="50" as="geometry" />
        </mxCell>
        <mxCell id="rdohVRuR8QGzKIeL4WwT-178" value="" style="ellipse;whiteSpace=wrap;html=1;aspect=fixed;fillColor=#e1d5e7;direction=west;container=0;" parent="1" vertex="1">
          <mxGeometry x="1750" y="1810" width="30" height="30" as="geometry" />
        </mxCell>
        <mxCell id="rdohVRuR8QGzKIeL4WwT-179" value="" style="ellipse;whiteSpace=wrap;html=1;aspect=fixed;fillColor=#e1d5e7;direction=west;container=0;" parent="1" vertex="1">
          <mxGeometry x="1750" y="1850" width="30" height="30" as="geometry" />
        </mxCell>
        <mxCell id="rdohVRuR8QGzKIeL4WwT-180" value="" style="ellipse;whiteSpace=wrap;html=1;aspect=fixed;fillColor=#e1d5e7;direction=west;container=0;" parent="1" vertex="1">
          <mxGeometry x="1750" y="1890" width="30" height="30" as="geometry" />
        </mxCell>
        <mxCell id="rdohVRuR8QGzKIeL4WwT-181" value="" style="ellipse;whiteSpace=wrap;html=1;aspect=fixed;fillColor=#e1d5e7;direction=west;container=0;" parent="1" vertex="1">
          <mxGeometry x="1750" y="1930" width="30" height="30" as="geometry" />
        </mxCell>
        <mxCell id="rdohVRuR8QGzKIeL4WwT-182" value="" style="rounded=1;whiteSpace=wrap;html=1;direction=west;rotation=90;container=0;" parent="1" vertex="1">
          <mxGeometry x="1870" y="1860" width="170" height="50" as="geometry" />
        </mxCell>
        <mxCell id="rdohVRuR8QGzKIeL4WwT-183" value="" style="ellipse;whiteSpace=wrap;html=1;aspect=fixed;fillColor=#e1d5e7;direction=west;container=0;" parent="1" vertex="1">
          <mxGeometry x="1940" y="1810" width="30" height="30" as="geometry" />
        </mxCell>
        <mxCell id="rdohVRuR8QGzKIeL4WwT-184" value="" style="ellipse;whiteSpace=wrap;html=1;aspect=fixed;fillColor=#e1d5e7;direction=west;container=0;" parent="1" vertex="1">
          <mxGeometry x="1940" y="1850" width="30" height="30" as="geometry" />
        </mxCell>
        <mxCell id="rdohVRuR8QGzKIeL4WwT-185" value="" style="ellipse;whiteSpace=wrap;html=1;aspect=fixed;fillColor=#e1d5e7;direction=west;container=0;" parent="1" vertex="1">
          <mxGeometry x="1940" y="1890" width="30" height="30" as="geometry" />
        </mxCell>
        <mxCell id="rdohVRuR8QGzKIeL4WwT-186" value="" style="ellipse;whiteSpace=wrap;html=1;aspect=fixed;fillColor=#e1d5e7;direction=west;container=0;" parent="1" vertex="1">
          <mxGeometry x="1940" y="1930" width="30" height="30" as="geometry" />
        </mxCell>
        <mxCell id="rdohVRuR8QGzKIeL4WwT-187" value="" style="rounded=1;whiteSpace=wrap;html=1;direction=west;rotation=90;container=0;" parent="1" vertex="1">
          <mxGeometry x="1470" y="1860" width="170" height="50" as="geometry" />
        </mxCell>
        <mxCell id="rdohVRuR8QGzKIeL4WwT-188" value="" style="ellipse;whiteSpace=wrap;html=1;aspect=fixed;fillColor=#e1d5e7;direction=west;container=0;" parent="1" vertex="1">
          <mxGeometry x="1540" y="1810" width="30" height="30" as="geometry" />
        </mxCell>
        <mxCell id="rdohVRuR8QGzKIeL4WwT-189" value="" style="ellipse;whiteSpace=wrap;html=1;aspect=fixed;fillColor=#e1d5e7;direction=west;container=0;" parent="1" vertex="1">
          <mxGeometry x="1540" y="1850" width="30" height="30" as="geometry" />
        </mxCell>
        <mxCell id="rdohVRuR8QGzKIeL4WwT-190" value="" style="ellipse;whiteSpace=wrap;html=1;aspect=fixed;fillColor=#e1d5e7;direction=west;container=0;" parent="1" vertex="1">
          <mxGeometry x="1540" y="1890" width="30" height="30" as="geometry" />
        </mxCell>
        <mxCell id="rdohVRuR8QGzKIeL4WwT-191" value="" style="ellipse;whiteSpace=wrap;html=1;aspect=fixed;fillColor=#e1d5e7;direction=west;container=0;" parent="1" vertex="1">
          <mxGeometry x="1540" y="1930" width="30" height="30" as="geometry" />
        </mxCell>
        <mxCell id="rdohVRuR8QGzKIeL4WwT-193" value="" style="endArrow=none;dashed=1;html=1;rounded=0;strokeWidth=2;" parent="1" edge="1">
          <mxGeometry width="50" height="50" relative="1" as="geometry">
            <mxPoint x="1498" y="1850" as="sourcePoint" />
            <mxPoint x="1801" y="1850" as="targetPoint" />
          </mxGeometry>
        </mxCell>
        <mxCell id="JG36jpaIuUBKlSv5XXhP-1" value="" style="rounded=1;whiteSpace=wrap;html=1;fontFamily=Times New Roman;strokeWidth=2;" parent="1" vertex="1">
          <mxGeometry x="66" y="1209" width="1040" height="1321" as="geometry" />
        </mxCell>
        <mxCell id="JG36jpaIuUBKlSv5XXhP-2" style="edgeStyle=orthogonalEdgeStyle;rounded=0;orthogonalLoop=1;jettySize=auto;html=1;exitX=0.5;exitY=0;exitDx=0;exitDy=0;entryX=0.5;entryY=1;entryDx=0;entryDy=0;" parent="1" source="JG36jpaIuUBKlSv5XXhP-6" target="JG36jpaIuUBKlSv5XXhP-16" edge="1">
          <mxGeometry relative="1" as="geometry">
            <Array as="points">
              <mxPoint x="546" y="2316" />
              <mxPoint x="176" y="2316" />
            </Array>
          </mxGeometry>
        </mxCell>
        <mxCell id="JG36jpaIuUBKlSv5XXhP-3" style="edgeStyle=orthogonalEdgeStyle;rounded=0;orthogonalLoop=1;jettySize=auto;html=1;exitX=0.5;exitY=0;exitDx=0;exitDy=0;entryX=0.5;entryY=1;entryDx=0;entryDy=0;" parent="1" source="JG36jpaIuUBKlSv5XXhP-6" target="JG36jpaIuUBKlSv5XXhP-18" edge="1">
          <mxGeometry relative="1" as="geometry">
            <Array as="points">
              <mxPoint x="546" y="2316" />
              <mxPoint x="426" y="2316" />
            </Array>
          </mxGeometry>
        </mxCell>
        <mxCell id="JG36jpaIuUBKlSv5XXhP-4" style="edgeStyle=orthogonalEdgeStyle;rounded=0;orthogonalLoop=1;jettySize=auto;html=1;exitX=0.5;exitY=0;exitDx=0;exitDy=0;entryX=0.5;entryY=1;entryDx=0;entryDy=0;" parent="1" source="JG36jpaIuUBKlSv5XXhP-6" target="JG36jpaIuUBKlSv5XXhP-12" edge="1">
          <mxGeometry relative="1" as="geometry">
            <Array as="points">
              <mxPoint x="546" y="2316" />
              <mxPoint x="676" y="2316" />
            </Array>
          </mxGeometry>
        </mxCell>
        <mxCell id="JG36jpaIuUBKlSv5XXhP-5" style="edgeStyle=orthogonalEdgeStyle;rounded=0;orthogonalLoop=1;jettySize=auto;html=1;exitX=0.5;exitY=0;exitDx=0;exitDy=0;" parent="1" source="JG36jpaIuUBKlSv5XXhP-6" target="JG36jpaIuUBKlSv5XXhP-14" edge="1">
          <mxGeometry relative="1" as="geometry">
            <Array as="points">
              <mxPoint x="545" y="2316" />
              <mxPoint x="946" y="2316" />
            </Array>
          </mxGeometry>
        </mxCell>
        <mxCell id="JG36jpaIuUBKlSv5XXhP-6" value="&lt;span style=&quot;font-size: 30px;&quot;&gt;&lt;font style=&quot;font-size: 30px;&quot; face=&quot;Times New Roman&quot;&gt;X&lt;sub&gt;1&lt;/sub&gt;X&lt;sub&gt;2&lt;/sub&gt;X&lt;sub&gt;3&lt;/sub&gt;X&lt;sub&gt;4&lt;/sub&gt;&lt;/font&gt;&lt;/span&gt;" style="rounded=0;whiteSpace=wrap;html=1;fontStyle=0;labelBorderColor=#FFFFFF;dashed=1;strokeColor=#FFFFFF;labelBackgroundColor=none;" parent="1" vertex="1">
          <mxGeometry x="450" y="2353" width="190" height="50" as="geometry" />
        </mxCell>
        <mxCell id="JG36jpaIuUBKlSv5XXhP-7" style="edgeStyle=orthogonalEdgeStyle;rounded=0;orthogonalLoop=1;jettySize=auto;html=1;exitX=0.5;exitY=0;exitDx=0;exitDy=0;entryX=0.5;entryY=1;entryDx=0;entryDy=0;" parent="1" source="JG36jpaIuUBKlSv5XXhP-8" target="JG36jpaIuUBKlSv5XXhP-22" edge="1">
          <mxGeometry relative="1" as="geometry">
            <Array as="points">
              <mxPoint x="416" y="2146" />
            </Array>
          </mxGeometry>
        </mxCell>
        <mxCell id="JG36jpaIuUBKlSv5XXhP-8" value="&lt;font style=&quot;font-size: 30px;&quot;&gt;word embedding&lt;/font&gt;" style="rounded=1;whiteSpace=wrap;html=1;fillColor=#d5e8d4;fontSize=20;fontFamily=Times New Roman;strokeColor=#82b366;" parent="1" vertex="1">
          <mxGeometry x="326" y="2126" width="190" height="90" as="geometry" />
        </mxCell>
        <mxCell id="JG36jpaIuUBKlSv5XXhP-9" style="edgeStyle=orthogonalEdgeStyle;rounded=0;orthogonalLoop=1;jettySize=auto;html=1;exitX=0.5;exitY=0;exitDx=0;exitDy=0;entryX=0.5;entryY=1;entryDx=0;entryDy=0;" parent="1" source="JG36jpaIuUBKlSv5XXhP-10" target="JG36jpaIuUBKlSv5XXhP-20" edge="1">
          <mxGeometry relative="1" as="geometry" />
        </mxCell>
        <mxCell id="JG36jpaIuUBKlSv5XXhP-10" value="&lt;font style=&quot;font-size: 30px;&quot;&gt;BERT&lt;sub&gt;&lt;i&gt;Chinese&lt;/i&gt;&lt;/sub&gt;&lt;/font&gt;" style="rounded=1;whiteSpace=wrap;html=1;fillColor=#dae8fc;fontSize=20;fontFamily=Times New Roman;" parent="1" vertex="1">
          <mxGeometry x="86" y="2126" width="180" height="90" as="geometry" />
        </mxCell>
        <mxCell id="JG36jpaIuUBKlSv5XXhP-11" style="edgeStyle=orthogonalEdgeStyle;rounded=0;orthogonalLoop=1;jettySize=auto;html=1;exitX=0.5;exitY=0;exitDx=0;exitDy=0;entryX=0.5;entryY=1;entryDx=0;entryDy=0;" parent="1" source="JG36jpaIuUBKlSv5XXhP-12" target="JG36jpaIuUBKlSv5XXhP-24" edge="1">
          <mxGeometry relative="1" as="geometry" />
        </mxCell>
        <mxCell id="JG36jpaIuUBKlSv5XXhP-12" value="&lt;font face=&quot;Times New Roman&quot; style=&quot;font-size: 30px;&quot;&gt;pinyin character embedding&lt;/font&gt;" style="rounded=1;whiteSpace=wrap;html=1;fillColor=#fff0e0;fontSize=20;" parent="1" vertex="1">
          <mxGeometry x="566" y="2126" width="220" height="90" as="geometry" />
        </mxCell>
        <mxCell id="JG36jpaIuUBKlSv5XXhP-13" style="edgeStyle=orthogonalEdgeStyle;rounded=0;orthogonalLoop=1;jettySize=auto;html=1;exitX=0.5;exitY=0;exitDx=0;exitDy=0;entryX=0.5;entryY=1;entryDx=0;entryDy=0;" parent="1" source="JG36jpaIuUBKlSv5XXhP-14" target="JG36jpaIuUBKlSv5XXhP-26" edge="1">
          <mxGeometry relative="1" as="geometry" />
        </mxCell>
        <mxCell id="JG36jpaIuUBKlSv5XXhP-14" value="&lt;font face=&quot;Times New Roman&quot; style=&quot;font-size: 30px;&quot;&gt;part-of-speech embedding&lt;/font&gt;" style="rounded=1;whiteSpace=wrap;html=1;fillColor=#ffd9d0;fontSize=20;" parent="1" vertex="1">
          <mxGeometry x="836" y="2126" width="210" height="90" as="geometry" />
        </mxCell>
        <mxCell id="JG36jpaIuUBKlSv5XXhP-15" style="edgeStyle=orthogonalEdgeStyle;rounded=0;orthogonalLoop=1;jettySize=auto;html=1;exitX=0.5;exitY=0;exitDx=0;exitDy=0;entryX=0.465;entryY=1.039;entryDx=0;entryDy=0;entryPerimeter=0;" parent="1" source="JG36jpaIuUBKlSv5XXhP-16" target="JG36jpaIuUBKlSv5XXhP-10" edge="1">
          <mxGeometry relative="1" as="geometry">
            <Array as="points">
              <mxPoint x="166" y="2286" />
              <mxPoint x="166" y="2256" />
            </Array>
          </mxGeometry>
        </mxCell>
        <mxCell id="JG36jpaIuUBKlSv5XXhP-16" value="&lt;font style=&quot;font-size: 30px;&quot; face=&quot;Times New Roman&quot;&gt;C&lt;sub&gt;1&lt;/sub&gt;/C&lt;sub&gt;2&lt;/sub&gt;/C&lt;sub&gt;3&lt;/sub&gt;/C&lt;sub&gt;4&lt;/sub&gt;&lt;/font&gt;" style="rounded=0;whiteSpace=wrap;html=1;fontStyle=0;labelBorderColor=#FFFFFF;dashed=1;strokeColor=#FFFFFF;" parent="1" vertex="1">
          <mxGeometry x="76" y="2246" width="190" height="50" as="geometry" />
        </mxCell>
        <mxCell id="JG36jpaIuUBKlSv5XXhP-17" style="edgeStyle=orthogonalEdgeStyle;rounded=0;orthogonalLoop=1;jettySize=auto;html=1;exitX=0.5;exitY=0;exitDx=0;exitDy=0;entryX=0.5;entryY=1;entryDx=0;entryDy=0;" parent="1" source="JG36jpaIuUBKlSv5XXhP-18" target="JG36jpaIuUBKlSv5XXhP-8" edge="1">
          <mxGeometry relative="1" as="geometry" />
        </mxCell>
        <mxCell id="JG36jpaIuUBKlSv5XXhP-18" value="&lt;font face=&quot;Times New Roman&quot;&gt;&lt;span style=&quot;font-size: 30px;&quot;&gt;W&lt;sub&gt;1&lt;/sub&gt;/W&lt;sub&gt;2&lt;/sub&gt;W&lt;sub&gt;3&lt;/sub&gt;/W&lt;sub&gt;4&lt;/sub&gt;&lt;/span&gt;&lt;/font&gt;" style="rounded=0;whiteSpace=wrap;html=1;fontStyle=0;labelBorderColor=#FFFFFF;dashed=1;strokeColor=#FFFFFF;" parent="1" vertex="1">
          <mxGeometry x="326" y="2255" width="190" height="31" as="geometry" />
        </mxCell>
        <mxCell id="JG36jpaIuUBKlSv5XXhP-19" style="edgeStyle=orthogonalEdgeStyle;rounded=0;orthogonalLoop=1;jettySize=auto;html=1;exitX=0.5;exitY=0;exitDx=0;exitDy=0;entryX=0.5;entryY=1;entryDx=0;entryDy=0;" parent="1" source="JG36jpaIuUBKlSv5XXhP-20" target="JG36jpaIuUBKlSv5XXhP-28" edge="1">
          <mxGeometry relative="1" as="geometry">
            <Array as="points">
              <mxPoint x="176" y="2026" />
            </Array>
          </mxGeometry>
        </mxCell>
        <mxCell id="JG36jpaIuUBKlSv5XXhP-20" value="&lt;font style=&quot;font-size: 30px;&quot; face=&quot;Times New Roman&quot;&gt;BiLSTM&lt;/font&gt;" style="rounded=1;whiteSpace=wrap;html=1;fillColor=#D3C8D9;strokeColor=#9673a6;" parent="1" vertex="1">
          <mxGeometry x="86" y="2026" width="180" height="80" as="geometry" />
        </mxCell>
        <mxCell id="JG36jpaIuUBKlSv5XXhP-21" style="edgeStyle=orthogonalEdgeStyle;rounded=0;orthogonalLoop=1;jettySize=auto;html=1;exitX=0.5;exitY=0;exitDx=0;exitDy=0;entryX=0.5;entryY=1;entryDx=0;entryDy=0;" parent="1" source="JG36jpaIuUBKlSv5XXhP-22" target="JG36jpaIuUBKlSv5XXhP-34" edge="1">
          <mxGeometry relative="1" as="geometry">
            <Array as="points">
              <mxPoint x="421" y="2026" />
            </Array>
          </mxGeometry>
        </mxCell>
        <mxCell id="JG36jpaIuUBKlSv5XXhP-22" value="&lt;font style=&quot;font-size: 30px;&quot; face=&quot;Times New Roman&quot;&gt;BiLSTM&lt;/font&gt;" style="rounded=1;whiteSpace=wrap;html=1;fillColor=#D3C8D9;strokeColor=#9673a6;" parent="1" vertex="1">
          <mxGeometry x="326" y="2026" width="180" height="80" as="geometry" />
        </mxCell>
        <mxCell id="JG36jpaIuUBKlSv5XXhP-23" style="edgeStyle=orthogonalEdgeStyle;rounded=0;orthogonalLoop=1;jettySize=auto;html=1;exitX=0.5;exitY=0;exitDx=0;exitDy=0;entryX=0.5;entryY=1;entryDx=0;entryDy=0;" parent="1" source="JG36jpaIuUBKlSv5XXhP-24" target="JG36jpaIuUBKlSv5XXhP-39" edge="1">
          <mxGeometry relative="1" as="geometry">
            <Array as="points">
              <mxPoint x="681" y="2026" />
            </Array>
          </mxGeometry>
        </mxCell>
        <mxCell id="JG36jpaIuUBKlSv5XXhP-24" value="&lt;font style=&quot;font-size: 30px;&quot; face=&quot;Times New Roman&quot;&gt;BiLSTM&lt;/font&gt;" style="rounded=1;whiteSpace=wrap;html=1;fillColor=#D3C8D9;strokeColor=#9673a6;" parent="1" vertex="1">
          <mxGeometry x="566" y="2026" width="220" height="80" as="geometry" />
        </mxCell>
        <mxCell id="JG36jpaIuUBKlSv5XXhP-25" style="edgeStyle=orthogonalEdgeStyle;rounded=0;orthogonalLoop=1;jettySize=auto;html=1;exitX=0.5;exitY=0;exitDx=0;exitDy=0;entryX=0.5;entryY=1;entryDx=0;entryDy=0;" parent="1" source="JG36jpaIuUBKlSv5XXhP-26" target="JG36jpaIuUBKlSv5XXhP-45" edge="1">
          <mxGeometry relative="1" as="geometry" />
        </mxCell>
        <mxCell id="JG36jpaIuUBKlSv5XXhP-26" value="&lt;font style=&quot;font-size: 30px;&quot; face=&quot;Times New Roman&quot;&gt;BiLSTM&lt;/font&gt;" style="rounded=1;whiteSpace=wrap;html=1;fillColor=#D3C8D9;strokeColor=#9673a6;" parent="1" vertex="1">
          <mxGeometry x="836" y="2026" width="210" height="80" as="geometry" />
        </mxCell>
        <mxCell id="JG36jpaIuUBKlSv5XXhP-27" style="edgeStyle=orthogonalEdgeStyle;rounded=0;orthogonalLoop=1;jettySize=auto;html=1;exitX=0.5;exitY=0;exitDx=0;exitDy=0;entryX=0.496;entryY=1.01;entryDx=0;entryDy=0;entryPerimeter=0;" parent="1" source="JG36jpaIuUBKlSv5XXhP-28" edge="1">
          <mxGeometry relative="1" as="geometry">
            <Array as="points">
              <mxPoint x="171" y="1840" />
              <mxPoint x="568" y="1840" />
            </Array>
            <mxPoint x="568.1600000000003" y="1739.5" as="targetPoint" />
          </mxGeometry>
        </mxCell>
        <mxCell id="JG36jpaIuUBKlSv5XXhP-28" value="" style="rounded=1;whiteSpace=wrap;html=1;" parent="1" vertex="1">
          <mxGeometry x="86" y="1936" width="170" height="50" as="geometry" />
        </mxCell>
        <mxCell id="JG36jpaIuUBKlSv5XXhP-29" value="" style="ellipse;whiteSpace=wrap;html=1;aspect=fixed;fillColor=#dae8fc;" parent="1" vertex="1">
          <mxGeometry x="96" y="1946" width="30" height="30" as="geometry" />
        </mxCell>
        <mxCell id="JG36jpaIuUBKlSv5XXhP-30" value="" style="ellipse;whiteSpace=wrap;html=1;aspect=fixed;fillColor=#dae8fc;" parent="1" vertex="1">
          <mxGeometry x="136" y="1946" width="30" height="30" as="geometry" />
        </mxCell>
        <mxCell id="JG36jpaIuUBKlSv5XXhP-31" value="" style="ellipse;whiteSpace=wrap;html=1;aspect=fixed;fillColor=#dae8fc;" parent="1" vertex="1">
          <mxGeometry x="216" y="1946" width="30" height="30" as="geometry" />
        </mxCell>
        <mxCell id="JG36jpaIuUBKlSv5XXhP-32" value="" style="ellipse;whiteSpace=wrap;html=1;aspect=fixed;fillColor=#dae8fc;" parent="1" vertex="1">
          <mxGeometry x="176" y="1946" width="30" height="30" as="geometry" />
        </mxCell>
        <mxCell id="JG36jpaIuUBKlSv5XXhP-33" style="edgeStyle=orthogonalEdgeStyle;rounded=0;orthogonalLoop=1;jettySize=auto;html=1;exitX=0.5;exitY=0;exitDx=0;exitDy=0;endArrow=none;endFill=0;" parent="1" source="JG36jpaIuUBKlSv5XXhP-34" edge="1">
          <mxGeometry relative="1" as="geometry">
            <mxPoint x="516" y="1840" as="targetPoint" />
            <Array as="points">
              <mxPoint x="421" y="1840" />
              <mxPoint x="516" y="1840" />
            </Array>
          </mxGeometry>
        </mxCell>
        <mxCell id="JG36jpaIuUBKlSv5XXhP-34" value="" style="rounded=1;whiteSpace=wrap;html=1;" parent="1" vertex="1">
          <mxGeometry x="336" y="1936" width="170" height="50" as="geometry" />
        </mxCell>
        <mxCell id="JG36jpaIuUBKlSv5XXhP-35" value="" style="ellipse;whiteSpace=wrap;html=1;aspect=fixed;fillColor=#d5e8d4;strokeColor=#82b366;" parent="1" vertex="1">
          <mxGeometry x="346" y="1946" width="30" height="30" as="geometry" />
        </mxCell>
        <mxCell id="JG36jpaIuUBKlSv5XXhP-36" value="" style="ellipse;whiteSpace=wrap;html=1;aspect=fixed;fillColor=#d5e8d4;strokeColor=#82b366;" parent="1" vertex="1">
          <mxGeometry x="406" y="1946" width="30" height="30" as="geometry" />
        </mxCell>
        <mxCell id="JG36jpaIuUBKlSv5XXhP-37" value="" style="ellipse;whiteSpace=wrap;html=1;aspect=fixed;fillColor=#d5e8d4;strokeColor=#82b366;" parent="1" vertex="1">
          <mxGeometry x="466" y="1946" width="30" height="30" as="geometry" />
        </mxCell>
        <mxCell id="JG36jpaIuUBKlSv5XXhP-38" style="edgeStyle=orthogonalEdgeStyle;rounded=0;orthogonalLoop=1;jettySize=auto;html=1;exitX=0.5;exitY=0;exitDx=0;exitDy=0;endArrow=none;endFill=0;" parent="1" source="JG36jpaIuUBKlSv5XXhP-39" edge="1">
          <mxGeometry relative="1" as="geometry">
            <mxPoint x="596" y="1840" as="targetPoint" />
            <Array as="points">
              <mxPoint x="681" y="1840" />
              <mxPoint x="596" y="1840" />
            </Array>
          </mxGeometry>
        </mxCell>
        <mxCell id="JG36jpaIuUBKlSv5XXhP-39" value="" style="rounded=1;whiteSpace=wrap;html=1;" parent="1" vertex="1">
          <mxGeometry x="596" y="1936" width="170" height="50" as="geometry" />
        </mxCell>
        <mxCell id="JG36jpaIuUBKlSv5XXhP-40" value="" style="ellipse;whiteSpace=wrap;html=1;aspect=fixed;fillColor=#fef1e0;" parent="1" vertex="1">
          <mxGeometry x="605" y="1946" width="30" height="30" as="geometry" />
        </mxCell>
        <mxCell id="JG36jpaIuUBKlSv5XXhP-41" value="" style="ellipse;whiteSpace=wrap;html=1;aspect=fixed;fillColor=#fef1e0;" parent="1" vertex="1">
          <mxGeometry x="646" y="1946" width="30" height="30" as="geometry" />
        </mxCell>
        <mxCell id="JG36jpaIuUBKlSv5XXhP-42" value="" style="ellipse;whiteSpace=wrap;html=1;aspect=fixed;fillColor=#fef1e0;" parent="1" vertex="1">
          <mxGeometry x="726" y="1946" width="30" height="30" as="geometry" />
        </mxCell>
        <mxCell id="JG36jpaIuUBKlSv5XXhP-43" value="" style="ellipse;whiteSpace=wrap;html=1;aspect=fixed;fillColor=#fef1e0;" parent="1" vertex="1">
          <mxGeometry x="686" y="1946" width="30" height="30" as="geometry" />
        </mxCell>
        <mxCell id="JG36jpaIuUBKlSv5XXhP-44" style="edgeStyle=orthogonalEdgeStyle;rounded=0;orthogonalLoop=1;jettySize=auto;html=1;exitX=0.5;exitY=0;exitDx=0;exitDy=0;entryX=0.496;entryY=1.01;entryDx=0;entryDy=0;entryPerimeter=0;" parent="1" source="JG36jpaIuUBKlSv5XXhP-45" edge="1">
          <mxGeometry relative="1" as="geometry">
            <mxPoint x="568.1600000000003" y="1739.5" as="targetPoint" />
            <Array as="points">
              <mxPoint x="941" y="1840" />
              <mxPoint x="568" y="1840" />
            </Array>
          </mxGeometry>
        </mxCell>
        <mxCell id="JG36jpaIuUBKlSv5XXhP-45" value="" style="rounded=1;whiteSpace=wrap;html=1;" parent="1" vertex="1">
          <mxGeometry x="856" y="1936" width="170" height="50" as="geometry" />
        </mxCell>
        <mxCell id="JG36jpaIuUBKlSv5XXhP-46" value="" style="ellipse;whiteSpace=wrap;html=1;aspect=fixed;fillColor=#ffd9d0;" parent="1" vertex="1">
          <mxGeometry x="866" y="1946" width="30" height="30" as="geometry" />
        </mxCell>
        <mxCell id="JG36jpaIuUBKlSv5XXhP-47" value="" style="ellipse;whiteSpace=wrap;html=1;aspect=fixed;fillColor=#ffd9d0;" parent="1" vertex="1">
          <mxGeometry x="906" y="1946" width="30" height="30" as="geometry" />
        </mxCell>
        <mxCell id="JG36jpaIuUBKlSv5XXhP-48" value="" style="ellipse;whiteSpace=wrap;html=1;aspect=fixed;fillColor=#ffd9d0;" parent="1" vertex="1">
          <mxGeometry x="986" y="1946" width="30" height="30" as="geometry" />
        </mxCell>
        <mxCell id="JG36jpaIuUBKlSv5XXhP-49" value="" style="ellipse;whiteSpace=wrap;html=1;aspect=fixed;fillColor=#ffd9d0;" parent="1" vertex="1">
          <mxGeometry x="946" y="1946" width="30" height="30" as="geometry" />
        </mxCell>
        <mxCell id="JG36jpaIuUBKlSv5XXhP-50" value="&lt;span style=&quot;background-color: initial;&quot;&gt;&lt;font face=&quot;Times New Roman&quot; style=&quot;font-size: 25px;&quot;&gt;Concatenation&lt;/font&gt;&lt;/span&gt;" style="text;html=1;align=center;verticalAlign=middle;resizable=0;points=[];autosize=1;strokeColor=none;fillColor=none;" parent="1" vertex="1">
          <mxGeometry x="396" y="1760" width="170" height="40" as="geometry" />
        </mxCell>
        <mxCell id="JG36jpaIuUBKlSv5XXhP-116" value="" style="endArrow=none;dashed=1;html=1;dashPattern=1 3;strokeWidth=3;rounded=0;" parent="1" edge="1">
          <mxGeometry width="50" height="50" relative="1" as="geometry">
            <mxPoint x="1160" y="2760" as="sourcePoint" />
            <mxPoint x="1160" y="1190" as="targetPoint" />
          </mxGeometry>
        </mxCell>
        <mxCell id="JG36jpaIuUBKlSv5XXhP-117" value="&lt;font style=&quot;font-size: 30px;&quot;&gt;&lt;span style=&quot;font-size: 30px;&quot;&gt;(a)&lt;/span&gt;&lt;/font&gt;" style="text;html=1;align=center;verticalAlign=middle;resizable=0;points=[];autosize=1;strokeColor=none;fillColor=none;fontFamily=Times New Roman;fontStyle=1;fontSize=30;" parent="1" vertex="1">
          <mxGeometry x="506" y="2550" width="60" height="50" as="geometry" />
        </mxCell>
        <mxCell id="JG36jpaIuUBKlSv5XXhP-143" value="" style="group" parent="1" vertex="1" connectable="0">
          <mxGeometry x="393" y="1519" width="350" height="220" as="geometry" />
        </mxCell>
        <mxCell id="JG36jpaIuUBKlSv5XXhP-61" value="" style="rounded=1;whiteSpace=wrap;html=1;dashed=1;dashPattern=8 8;" parent="JG36jpaIuUBKlSv5XXhP-143" vertex="1">
          <mxGeometry width="350" height="210" as="geometry" />
        </mxCell>
        <mxCell id="JG36jpaIuUBKlSv5XXhP-62" value="" style="group" parent="JG36jpaIuUBKlSv5XXhP-143" vertex="1" connectable="0">
          <mxGeometry x="30" y="20" width="280" height="200" as="geometry" />
        </mxCell>
        <mxCell id="JG36jpaIuUBKlSv5XXhP-118" value="" style="group" parent="JG36jpaIuUBKlSv5XXhP-62" vertex="1" connectable="0">
          <mxGeometry width="50" height="170" as="geometry" />
        </mxCell>
        <mxCell id="JG36jpaIuUBKlSv5XXhP-71" value="" style="rounded=1;whiteSpace=wrap;html=1;direction=south;container=0;" parent="JG36jpaIuUBKlSv5XXhP-118" vertex="1">
          <mxGeometry width="50" height="170" as="geometry" />
        </mxCell>
        <mxCell id="JG36jpaIuUBKlSv5XXhP-72" value="" style="ellipse;whiteSpace=wrap;html=1;aspect=fixed;fillColor=#d5e8d4;direction=south;container=0;strokeColor=#82b366;" parent="JG36jpaIuUBKlSv5XXhP-118" vertex="1">
          <mxGeometry x="10" y="50" width="30" height="30" as="geometry" />
        </mxCell>
        <mxCell id="JG36jpaIuUBKlSv5XXhP-73" value="" style="ellipse;whiteSpace=wrap;html=1;aspect=fixed;fillColor=#fef1e0;direction=south;container=0;" parent="JG36jpaIuUBKlSv5XXhP-118" vertex="1">
          <mxGeometry x="10" y="88" width="30" height="30" as="geometry" />
        </mxCell>
        <mxCell id="JG36jpaIuUBKlSv5XXhP-74" value="" style="ellipse;whiteSpace=wrap;html=1;aspect=fixed;fillColor=#ffd9d0;direction=south;container=0;" parent="JG36jpaIuUBKlSv5XXhP-118" vertex="1">
          <mxGeometry x="10" y="129" width="30" height="30" as="geometry" />
        </mxCell>
        <mxCell id="JG36jpaIuUBKlSv5XXhP-75" value="" style="ellipse;whiteSpace=wrap;html=1;aspect=fixed;fillColor=#dae8fc;direction=south;container=0;" parent="JG36jpaIuUBKlSv5XXhP-118" vertex="1">
          <mxGeometry x="10" y="9" width="30" height="30" as="geometry" />
        </mxCell>
        <mxCell id="JG36jpaIuUBKlSv5XXhP-125" value="" style="group" parent="JG36jpaIuUBKlSv5XXhP-143" vertex="1" connectable="0">
          <mxGeometry x="115" y="20" width="50" height="170" as="geometry" />
        </mxCell>
        <mxCell id="JG36jpaIuUBKlSv5XXhP-126" value="" style="rounded=1;whiteSpace=wrap;html=1;direction=south;container=0;" parent="JG36jpaIuUBKlSv5XXhP-125" vertex="1">
          <mxGeometry width="50" height="170" as="geometry" />
        </mxCell>
        <mxCell id="JG36jpaIuUBKlSv5XXhP-127" value="" style="ellipse;whiteSpace=wrap;html=1;aspect=fixed;fillColor=#d5e8d4;direction=south;container=0;strokeColor=#82b366;" parent="JG36jpaIuUBKlSv5XXhP-125" vertex="1">
          <mxGeometry x="10" y="50" width="30" height="30" as="geometry" />
        </mxCell>
        <mxCell id="JG36jpaIuUBKlSv5XXhP-128" value="" style="ellipse;whiteSpace=wrap;html=1;aspect=fixed;fillColor=#fef1e0;direction=south;container=0;" parent="JG36jpaIuUBKlSv5XXhP-125" vertex="1">
          <mxGeometry x="10" y="88" width="30" height="30" as="geometry" />
        </mxCell>
        <mxCell id="JG36jpaIuUBKlSv5XXhP-129" value="" style="ellipse;whiteSpace=wrap;html=1;aspect=fixed;fillColor=#ffd9d0;direction=south;container=0;" parent="JG36jpaIuUBKlSv5XXhP-125" vertex="1">
          <mxGeometry x="10" y="129" width="30" height="30" as="geometry" />
        </mxCell>
        <mxCell id="JG36jpaIuUBKlSv5XXhP-130" value="" style="ellipse;whiteSpace=wrap;html=1;aspect=fixed;fillColor=#dae8fc;direction=south;container=0;" parent="JG36jpaIuUBKlSv5XXhP-125" vertex="1">
          <mxGeometry x="10" y="9" width="30" height="30" as="geometry" />
        </mxCell>
        <mxCell id="JG36jpaIuUBKlSv5XXhP-131" value="" style="group" parent="JG36jpaIuUBKlSv5XXhP-143" vertex="1" connectable="0">
          <mxGeometry x="202" y="20" width="50" height="170" as="geometry" />
        </mxCell>
        <mxCell id="JG36jpaIuUBKlSv5XXhP-132" value="" style="rounded=1;whiteSpace=wrap;html=1;direction=south;container=0;" parent="JG36jpaIuUBKlSv5XXhP-131" vertex="1">
          <mxGeometry x="-2" width="50" height="170" as="geometry" />
        </mxCell>
        <mxCell id="JG36jpaIuUBKlSv5XXhP-133" value="" style="ellipse;whiteSpace=wrap;html=1;aspect=fixed;fillColor=#d5e8d4;direction=south;container=0;strokeColor=#82b366;" parent="JG36jpaIuUBKlSv5XXhP-131" vertex="1">
          <mxGeometry x="10" y="50" width="30" height="30" as="geometry" />
        </mxCell>
        <mxCell id="JG36jpaIuUBKlSv5XXhP-134" value="" style="ellipse;whiteSpace=wrap;html=1;aspect=fixed;fillColor=#fef1e0;direction=south;container=0;" parent="JG36jpaIuUBKlSv5XXhP-131" vertex="1">
          <mxGeometry x="10" y="88" width="30" height="30" as="geometry" />
        </mxCell>
        <mxCell id="JG36jpaIuUBKlSv5XXhP-135" value="" style="ellipse;whiteSpace=wrap;html=1;aspect=fixed;fillColor=#ffd9d0;direction=south;container=0;" parent="JG36jpaIuUBKlSv5XXhP-131" vertex="1">
          <mxGeometry x="10" y="129" width="30" height="30" as="geometry" />
        </mxCell>
        <mxCell id="JG36jpaIuUBKlSv5XXhP-136" value="" style="ellipse;whiteSpace=wrap;html=1;aspect=fixed;fillColor=#dae8fc;direction=south;container=0;" parent="JG36jpaIuUBKlSv5XXhP-131" vertex="1">
          <mxGeometry x="10" y="9" width="30" height="30" as="geometry" />
        </mxCell>
        <mxCell id="JG36jpaIuUBKlSv5XXhP-137" value="" style="group" parent="JG36jpaIuUBKlSv5XXhP-143" vertex="1" connectable="0">
          <mxGeometry x="280" y="20" width="50" height="170" as="geometry" />
        </mxCell>
        <mxCell id="JG36jpaIuUBKlSv5XXhP-138" value="" style="rounded=1;whiteSpace=wrap;html=1;direction=south;container=0;" parent="JG36jpaIuUBKlSv5XXhP-137" vertex="1">
          <mxGeometry width="50" height="170" as="geometry" />
        </mxCell>
        <mxCell id="JG36jpaIuUBKlSv5XXhP-139" value="" style="ellipse;whiteSpace=wrap;html=1;aspect=fixed;fillColor=#d5e8d4;direction=south;container=0;strokeColor=#82b366;" parent="JG36jpaIuUBKlSv5XXhP-137" vertex="1">
          <mxGeometry x="10" y="50" width="30" height="30" as="geometry" />
        </mxCell>
        <mxCell id="JG36jpaIuUBKlSv5XXhP-140" value="" style="ellipse;whiteSpace=wrap;html=1;aspect=fixed;fillColor=#fef1e0;direction=south;container=0;" parent="JG36jpaIuUBKlSv5XXhP-137" vertex="1">
          <mxGeometry x="10" y="88" width="30" height="30" as="geometry" />
        </mxCell>
        <mxCell id="JG36jpaIuUBKlSv5XXhP-141" value="" style="ellipse;whiteSpace=wrap;html=1;aspect=fixed;fillColor=#ffd9d0;direction=south;container=0;" parent="JG36jpaIuUBKlSv5XXhP-137" vertex="1">
          <mxGeometry x="10" y="129" width="30" height="30" as="geometry" />
        </mxCell>
        <mxCell id="JG36jpaIuUBKlSv5XXhP-142" value="" style="ellipse;whiteSpace=wrap;html=1;aspect=fixed;fillColor=#dae8fc;direction=south;container=0;" parent="JG36jpaIuUBKlSv5XXhP-137" vertex="1">
          <mxGeometry x="10" y="9" width="30" height="30" as="geometry" />
        </mxCell>
        <mxCell id="JG36jpaIuUBKlSv5XXhP-144" value="&lt;font style=&quot;font-size: 30px;&quot; face=&quot;Times New Roman&quot;&gt;Char-level Encoder Layer&lt;/font&gt;" style="text;html=1;align=center;verticalAlign=middle;resizable=0;points=[];autosize=1;strokeColor=none;fillColor=none;container=0;fontSize=30;fontStyle=1" parent="1" vertex="1">
          <mxGeometry x="1613" y="1239" width="360" height="50" as="geometry" />
        </mxCell>
        <mxCell id="rdohVRuR8QGzKIeL4WwT-140" value="&lt;font style=&quot;font-size: 30px;&quot; face=&quot;Times New Roman&quot;&gt;Row Max Pooling Layer&lt;/font&gt;" style="rounded=1;whiteSpace=wrap;html=1;fillColor=#f5f5f5;strokeColor=#666666;fontSize=12;fontStyle=0;fontColor=#333333;" parent="1" vertex="1">
          <mxGeometry x="381" y="1378" width="380" height="90" as="geometry" />
        </mxCell>
        <mxCell id="rdohVRuR8QGzKIeL4WwT-204" value="&lt;font face=&quot;Times New Roman&quot;&gt;&lt;span style=&quot;font-size: 30px;&quot;&gt;&lt;span&gt;3-Class Decoder Layer&lt;/span&gt;&lt;/span&gt;&lt;/font&gt;" style="rounded=1;whiteSpace=wrap;html=1;fillColor=#f5f5f5;strokeColor=#666666;fontStyle=0;fontColor=#333333;" parent="1" vertex="1">
          <mxGeometry x="381" y="1248" width="380" height="80" as="geometry" />
        </mxCell>
        <mxCell id="rdohVRuR8QGzKIeL4WwT-205" style="edgeStyle=orthogonalEdgeStyle;rounded=0;orthogonalLoop=1;jettySize=auto;html=1;exitX=0.5;exitY=0;exitDx=0;exitDy=0;shape=flexArrow;" parent="1" source="rdohVRuR8QGzKIeL4WwT-140" target="rdohVRuR8QGzKIeL4WwT-204" edge="1">
          <mxGeometry relative="1" as="geometry" />
        </mxCell>
        <mxCell id="JG36jpaIuUBKlSv5XXhP-146" style="edgeStyle=orthogonalEdgeStyle;rounded=0;orthogonalLoop=1;jettySize=auto;html=1;exitX=0.5;exitY=0;exitDx=0;exitDy=0;shape=flexArrow;" parent="1" edge="1">
          <mxGeometry relative="1" as="geometry">
            <mxPoint x="571" y="1519" as="sourcePoint" />
            <mxPoint x="571" y="1469" as="targetPoint" />
          </mxGeometry>
        </mxCell>
        <mxCell id="JG36jpaIuUBKlSv5XXhP-209" value="&lt;font style=&quot;font-size: 30px;&quot;&gt;&lt;span style=&quot;font-size: 30px;&quot;&gt;(b)&lt;/span&gt;&lt;/font&gt;" style="text;html=1;align=center;verticalAlign=middle;resizable=0;points=[];autosize=1;strokeColor=none;fillColor=none;fontFamily=Times New Roman;fontStyle=1;fontSize=30;" parent="1" vertex="1">
          <mxGeometry x="1685" y="1661" width="60" height="50" as="geometry" />
        </mxCell>
        <mxCell id="JG36jpaIuUBKlSv5XXhP-210" value="&lt;font style=&quot;font-size: 30px;&quot;&gt;&lt;span style=&quot;font-size: 30px;&quot;&gt;(c)&lt;/span&gt;&lt;/font&gt;" style="text;html=1;align=center;verticalAlign=middle;resizable=0;points=[];autosize=1;strokeColor=none;fillColor=none;fontFamily=Times New Roman;fontStyle=1;fontSize=30;" parent="1" vertex="1">
          <mxGeometry x="1690" y="2005" width="60" height="50" as="geometry" />
        </mxCell>
        <mxCell id="JG36jpaIuUBKlSv5XXhP-223" value="" style="group" parent="1" vertex="1" connectable="0">
          <mxGeometry x="1220" y="2080" width="960" height="689" as="geometry" />
        </mxCell>
        <mxCell id="JG36jpaIuUBKlSv5XXhP-211" value="&lt;font style=&quot;font-size: 30px;&quot;&gt;&lt;span style=&quot;font-size: 30px;&quot;&gt;(d)&lt;/span&gt;&lt;/font&gt;" style="text;html=1;align=center;verticalAlign=middle;resizable=0;points=[];autosize=1;strokeColor=none;fillColor=none;fontFamily=Times New Roman;fontStyle=1;fontSize=30;" parent="JG36jpaIuUBKlSv5XXhP-223" vertex="1">
          <mxGeometry x="450" y="639" width="60" height="50" as="geometry" />
        </mxCell>
        <mxCell id="JG36jpaIuUBKlSv5XXhP-148" value="" style="rounded=1;whiteSpace=wrap;html=1;" parent="JG36jpaIuUBKlSv5XXhP-223" vertex="1">
          <mxGeometry width="960" height="620" as="geometry" />
        </mxCell>
        <mxCell id="JG36jpaIuUBKlSv5XXhP-149" value="&lt;font style=&quot;font-size: 30px;&quot;&gt;Entailment&lt;/font&gt;" style="rounded=1;whiteSpace=wrap;html=1;fontFamily=Times New Roman;fontSize=30;" parent="JG36jpaIuUBKlSv5XXhP-223" vertex="1">
          <mxGeometry x="67" y="83" width="245" height="76" as="geometry" />
        </mxCell>
        <mxCell id="JG36jpaIuUBKlSv5XXhP-150" value="&lt;font style=&quot;font-size: 30px;&quot;&gt;Contradiction&lt;/font&gt;" style="rounded=1;whiteSpace=wrap;html=1;fontFamily=Times New Roman;fontSize=30;" parent="JG36jpaIuUBKlSv5XXhP-223" vertex="1">
          <mxGeometry x="362" y="83" width="245" height="76" as="geometry" />
        </mxCell>
        <mxCell id="JG36jpaIuUBKlSv5XXhP-151" value="&lt;font style=&quot;font-size: 30px;&quot;&gt;Neutral&lt;/font&gt;" style="rounded=1;whiteSpace=wrap;html=1;fontSize=30;fontFamily=Times New Roman;" parent="JG36jpaIuUBKlSv5XXhP-223" vertex="1">
          <mxGeometry x="637" y="83" width="245" height="76" as="geometry" />
        </mxCell>
        <mxCell id="JG36jpaIuUBKlSv5XXhP-206" value="&lt;font size=&quot;1&quot; face=&quot;Times New Roman&quot;&gt;&lt;b style=&quot;font-size: 30px;&quot;&gt;3-Class Decoder Layer&lt;/b&gt;&lt;/font&gt;" style="text;html=1;align=center;verticalAlign=middle;resizable=0;points=[];autosize=1;strokeColor=none;fillColor=none;" parent="JG36jpaIuUBKlSv5XXhP-223" vertex="1">
          <mxGeometry x="329.4957575757576" y="4" width="310" height="50" as="geometry" />
        </mxCell>
        <mxCell id="JG36jpaIuUBKlSv5XXhP-212" value="&lt;font style=&quot;font-size: 30px;&quot;&gt;&lt;span style=&quot;font-size: 30px;&quot;&gt;&lt;span style=&quot;font-size: 30px;&quot;&gt;Premise Hidden&lt;/span&gt;&lt;/span&gt;&lt;/font&gt;" style="rounded=1;whiteSpace=wrap;html=1;fillColor=#f5f5f5;strokeColor=#666666;fontStyle=0;fontColor=#333333;fontFamily=Times New Roman;fontSize=30;" parent="JG36jpaIuUBKlSv5XXhP-223" vertex="1">
          <mxGeometry x="68.5" y="490" width="380" height="80" as="geometry" />
        </mxCell>
        <mxCell id="JG36jpaIuUBKlSv5XXhP-217" style="edgeStyle=orthogonalEdgeStyle;rounded=0;orthogonalLoop=1;jettySize=auto;html=1;exitX=0.5;exitY=0;exitDx=0;exitDy=0;" parent="JG36jpaIuUBKlSv5XXhP-223" source="JG36jpaIuUBKlSv5XXhP-213" edge="1">
          <mxGeometry relative="1" as="geometry">
            <mxPoint x="490" y="420" as="targetPoint" />
            <Array as="points">
              <mxPoint x="720" y="460" />
              <mxPoint x="490" y="460" />
            </Array>
          </mxGeometry>
        </mxCell>
        <mxCell id="JG36jpaIuUBKlSv5XXhP-213" value="&lt;font style=&quot;font-size: 30px;&quot;&gt;&lt;span style=&quot;font-size: 30px;&quot;&gt;&lt;span style=&quot;font-size: 30px;&quot;&gt;Hypothesis Hidden&lt;/span&gt;&lt;/span&gt;&lt;/font&gt;" style="rounded=1;whiteSpace=wrap;html=1;fillColor=#f5f5f5;strokeColor=#666666;fontStyle=0;fontColor=#333333;fontFamily=Times New Roman;fontSize=30;" parent="JG36jpaIuUBKlSv5XXhP-223" vertex="1">
          <mxGeometry x="525.5" y="489" width="380" height="80" as="geometry" />
        </mxCell>
        <mxCell id="JG36jpaIuUBKlSv5XXhP-214" value="&lt;span style=&quot;background-color: initial;&quot;&gt;&lt;font face=&quot;Times New Roman&quot; style=&quot;font-size: 25px;&quot;&gt;Concatenation&lt;/font&gt;&lt;/span&gt;" style="text;html=1;align=center;verticalAlign=middle;resizable=0;points=[];autosize=1;strokeColor=none;fillColor=none;" parent="JG36jpaIuUBKlSv5XXhP-223" vertex="1">
          <mxGeometry x="300" y="420" width="170" height="40" as="geometry" />
        </mxCell>
        <mxCell id="JG36jpaIuUBKlSv5XXhP-215" value="&lt;font style=&quot;font-size: 30px;&quot;&gt;&lt;span style=&quot;font-size: 30px;&quot;&gt;&lt;span style=&quot;font-size: 30px;&quot;&gt;3-class softmax&lt;/span&gt;&lt;/span&gt;&lt;/font&gt;" style="rounded=1;whiteSpace=wrap;html=1;fillColor=#f5f5f5;strokeColor=#666666;fontStyle=0;fontColor=#333333;fontFamily=Times New Roman;fontSize=30;" parent="JG36jpaIuUBKlSv5XXhP-223" vertex="1">
          <mxGeometry x="300" y="340" width="380" height="80" as="geometry" />
        </mxCell>
        <mxCell id="JG36jpaIuUBKlSv5XXhP-216" style="edgeStyle=orthogonalEdgeStyle;rounded=0;orthogonalLoop=1;jettySize=auto;html=1;exitX=0.5;exitY=0;exitDx=0;exitDy=0;entryX=0.5;entryY=1;entryDx=0;entryDy=0;startArrow=none;startFill=0;endArrow=none;endFill=0;" parent="JG36jpaIuUBKlSv5XXhP-223" source="JG36jpaIuUBKlSv5XXhP-212" target="JG36jpaIuUBKlSv5XXhP-215" edge="1">
          <mxGeometry relative="1" as="geometry">
            <Array as="points">
              <mxPoint x="258" y="460" />
              <mxPoint x="490" y="460" />
            </Array>
          </mxGeometry>
        </mxCell>
        <mxCell id="JG36jpaIuUBKlSv5XXhP-218" value="" style="group" parent="JG36jpaIuUBKlSv5XXhP-223" vertex="1" connectable="0">
          <mxGeometry x="130" y="220" width="700" height="60" as="geometry" />
        </mxCell>
        <mxCell id="JG36jpaIuUBKlSv5XXhP-178" value="" style="rounded=0;whiteSpace=wrap;html=1;dashed=1;strokeWidth=2;" parent="JG36jpaIuUBKlSv5XXhP-218" vertex="1">
          <mxGeometry width="700" height="60" as="geometry" />
        </mxCell>
        <mxCell id="JG36jpaIuUBKlSv5XXhP-179" value="&lt;font face=&quot;Times New Roman&quot; style=&quot;font-size: 30px;&quot;&gt;0.79&lt;/font&gt;" style="text;html=1;align=center;verticalAlign=middle;resizable=0;points=[];autosize=1;strokeColor=none;fillColor=none;fontStyle=1" parent="JG36jpaIuUBKlSv5XXhP-218" vertex="1">
          <mxGeometry x="315" y="5" width="80" height="50" as="geometry" />
        </mxCell>
        <mxCell id="JG36jpaIuUBKlSv5XXhP-180" value="&lt;font style=&quot;font-size: 30px;&quot; face=&quot;Times New Roman&quot;&gt;0.10&lt;/font&gt;" style="text;html=1;align=center;verticalAlign=middle;resizable=0;points=[];autosize=1;strokeColor=none;fillColor=none;" parent="JG36jpaIuUBKlSv5XXhP-218" vertex="1">
          <mxGeometry x="602.5" y="5" width="80" height="50" as="geometry" />
        </mxCell>
        <mxCell id="JG36jpaIuUBKlSv5XXhP-203" value="&lt;font style=&quot;font-size: 30px;&quot; face=&quot;Times New Roman&quot;&gt;0.11&lt;/font&gt;" style="text;html=1;align=center;verticalAlign=middle;resizable=0;points=[];autosize=1;strokeColor=none;fillColor=none;" parent="JG36jpaIuUBKlSv5XXhP-218" vertex="1">
          <mxGeometry x="35" y="5" width="70" height="50" as="geometry" />
        </mxCell>
        <mxCell id="JG36jpaIuUBKlSv5XXhP-219" style="edgeStyle=orthogonalEdgeStyle;rounded=0;orthogonalLoop=1;jettySize=auto;html=1;exitX=0.5;exitY=0;exitDx=0;exitDy=0;entryX=0.567;entryY=1.073;entryDx=0;entryDy=0;entryPerimeter=0;" parent="JG36jpaIuUBKlSv5XXhP-223" source="JG36jpaIuUBKlSv5XXhP-215" target="JG36jpaIuUBKlSv5XXhP-179" edge="1">
          <mxGeometry relative="1" as="geometry" />
        </mxCell>
        <mxCell id="JG36jpaIuUBKlSv5XXhP-220" style="edgeStyle=orthogonalEdgeStyle;rounded=0;orthogonalLoop=1;jettySize=auto;html=1;" parent="JG36jpaIuUBKlSv5XXhP-223" source="JG36jpaIuUBKlSv5XXhP-179" target="JG36jpaIuUBKlSv5XXhP-150" edge="1">
          <mxGeometry relative="1" as="geometry" />
        </mxCell>
      </root>
    </mxGraphModel>
  </diagram>
</mxfile>
